<?xml version="1.0" standalone="no"?>
<!DOCTYPE svg PUBLIC "-//W3C//DTD SVG 20010904//EN"
 "http://www.w3.org/TR/2001/REC-SVG-20010904/DTD/svg10.dtd">
<svg version="1.0" xmlns="http://www.w3.org/2000/svg"
 width="160.000000pt" height="160.000000pt" viewBox="0 0 160.000000 160.000000"
 preserveAspectRatio="xMidYMid meet">
<metadata>
Created by potrace 1.16, written by Peter Selinger 2001-2019
</metadata>
<g transform="translate(0.000000,160.000000) scale(0.100000,-0.100000)"
fill="#000000" stroke="none">
<path d="M632 1065 c17 -37 3 -42 -26 -9 l-25 29 11 -32 c10 -25 10 -35 0 -45
-9 -9 -12 -8 -12 8 0 29 -11 36 -26 16 -11 -15 -14 -15 -38 11 -32 35 -68 33
-76 -3 -3 -14 -13 -26 -22 -28 -12 -2 -15 2 -11 17 3 12 1 21 -6 21 -19 0 -26
-5 -23 -14 2 -5 1 -15 -2 -23 -5 -12 -9 -12 -27 0 -11 8 -29 13 -40 10 -47
-13 -2 -43 63 -43 48 0 68 -13 68 -44 0 -18 -1 -18 -19 -2 -11 10 -25 15 -30
11 -35 -21 25 -48 88 -39 37 5 51 2 64 -11 9 -9 17 -21 17 -26 0 -12 -17 -12
-25 1 -9 15 -45 12 -45 -4 0 -19 34 -30 67 -21 16 4 34 0 49 -10 23 -15 23
-15 12 9 -8 19 -8 36 2 70 11 42 15 45 49 48 25 2 37 8 39 21 3 15 0 16 -22 6
-32 -15 -47 -4 -21 15 19 13 18 15 -5 50 -29 41 -45 48 -28 11z"/>
<path d="M567 803 c-4 -3 -7 -19 -7 -34 0 -34 -19 -49 -27 -20 -7 26 -18 26
-51 0 l-27 -21 -5 34 c-4 25 -7 29 -12 16 -10 -25 -25 -22 -32 5 l-6 22 -15
-23 c-9 -12 -21 -19 -27 -16 -7 4 -8 2 -4 -4 4 -7 16 -12 26 -12 25 0 54 -44
45 -67 -6 -16 -8 -16 -15 3 -12 30 -40 39 -40 12 0 -16 -3 -18 -14 -9 -15 12
-22 6 -46 -41 -19 -40 -31 -34 -24 11 7 45 -8 61 -25 25 -11 -26 -37 -23 -27
3 8 19 -3 63 -15 63 -5 0 -9 -10 -9 -23 0 -28 -26 -67 -45 -67 -12 0 -12 5 -3
25 14 31 6 40 -20 24 -17 -10 -24 -10 -45 4 -28 18 -37 14 -37 -21 0 -20 -2
-22 -15 -12 -29 24 -45 4 -45 -54 0 -45 3 -54 15 -50 11 5 12 10 4 26 -8 16
-8 23 2 29 23 15 33 10 62 -26 28 -35 29 -55 1 -55 -30 0 -12 -18 24 -24 39
-6 81 -39 64 -50 -6 -3 -13 1 -16 10 -8 22 -26 7 -26 -22 0 -31 -18 -31 -30 1
-14 37 -33 32 -24 -7 6 -29 5 -31 -9 -20 -21 18 -61 11 -65 -9 -6 -34 134 -32
223 3 17 6 49 24 72 40 23 16 57 31 75 34 44 9 75 39 100 97 14 31 30 52 46
58 38 15 97 -7 151 -55 63 -56 130 -102 184 -126 62 -29 79 -24 20 5 -89 45
-172 148 -203 253 -7 23 -17 42 -22 42 -4 0 -8 8 -9 18 0 13 -3 12 -11 -5 -14
-28 -24 -29 -31 -3 -5 20 -18 26 -30 13z"/>
<path d="M1567 543 c-8 -10 -18 -30 -22 -44 -6 -23 -11 -26 -48 -25 -32 1 -43
-4 -52 -20 -9 -17 -15 -19 -38 -11 -22 7 -32 5 -47 -8 -11 -10 -26 -15 -34
-12 -20 8 -80 -13 -69 -24 8 -8 238 -29 316 -29 l27 0 0 95 c0 52 -4 95 -8 95
-5 0 -16 -8 -25 -17z"/>
<path d="M667 334 c-3 -3 -3 -12 -1 -19 6 -16 -12 -29 -21 -15 -3 5 -14 10
-23 10 -9 0 4 -14 31 -30 26 -17 47 -37 47 -45 0 -20 -10 -19 -26 2 -22 31
-29 4 -9 -33 12 -23 38 -47 70 -64 27 -16 59 -37 70 -48 15 -16 39 -22 95 -26
232 -19 218 -19 253 2 22 15 37 18 48 11 12 -6 42 4 110 38 73 37 89 48 73 54
-10 4 -89 28 -175 53 -210 62 -240 61 -154 -4 25 -18 43 -35 41 -37 -7 -7
-109 48 -173 93 -34 24 -65 44 -69 44 -14 0 40 -51 109 -103 37 -29 63 -53 58
-55 -11 -4 -114 59 -147 89 -11 11 -38 20 -60 22 -21 1 -45 6 -52 11 -8 5 -21
1 -33 -10 -14 -12 -23 -14 -30 -7 -8 8 -8 13 0 17 16 11 13 43 -5 50 -19 7
-19 7 -27 0z"/>
<path d="M1090 330 c0 -13 177 -89 269 -116 l91 -26 36 27 c19 15 33 29 31 31
-13 14 -427 95 -427 84z"/>
<path d="M92 260 c-12 -5 -28 -7 -35 -5 -6 2 -21 -2 -32 -11 -17 -13 -20 -29
-24 -129 l-3 -115 220 0 220 0 6 27 c5 16 3 29 -5 33 -9 6 -9 16 0 43 9 26 9
42 1 56 -19 36 -65 -3 -54 -46 7 -24 -11 -40 -20 -18 -8 21 -23 19 -29 -5 -9
-35 -27 -22 -24 17 l2 38 -37 -3 c-38 -4 -52 11 -22 22 9 3 14 15 12 28 -3 24
-28 28 -75 13 -18 -6 -24 -1 -37 29 -15 37 -25 41 -64 26z"/>
<path d="M1571 226 c-7 -8 -54 -42 -106 -77 -126 -83 -120 -92 42 -62 l93 17
0 68 c0 68 -7 81 -29 54z"/>
<path d="M527 224 c-3 -4 3 -18 13 -32 11 -13 20 -35 20 -47 0 -14 9 -26 25
-33 33 -15 32 -31 -1 -24 -44 8 -23 -22 22 -32 61 -13 124 -37 124 -47 0 -5
30 -9 68 -9 l67 1 -70 30 c-39 17 -88 48 -111 70 -22 22 -43 36 -47 33 -9 -10
-36 15 -63 58 -24 37 -34 44 -47 32z"/>
</g>
</svg>
